<svg width="24" height="24" viewBox="0 0 24 24" fill="none" xmlns="http://www.w3.org/2000/svg">
<g clip-path="url(#clip0_65_1327)">
<path d="M23.5864 19.8619H0.414056C0.185541 19.8619 0.000244141 19.6766 0.000244141 19.4481V4.5516C0.000244141 4.32308 0.185541 4.13779 0.414056 4.13779H23.5864C23.8149 4.13779 24.0002 4.32308 24.0002 4.5516V19.4481C24.0002 19.6767 23.8149 19.8619 23.5864 19.8619Z" fill="#F5F5F5"/>
<path d="M18.6211 4.138H5.37988V19.8622H18.6211V4.138Z" fill="#F5F5F5"/>
<path d="M0.414056 4.13797C0.185541 4.13797 0.000244141 4.32322 0.000244141 4.55173V19.4483C0.000244141 19.6768 0.185541 19.8621 0.414056 19.8621H5.37956V4.13797H0.414056Z" fill="#FF4B55"/>
<path d="M23.5866 4.13788H18.6211V19.862H23.5866C23.8151 19.862 24.0004 19.6767 24.0004 19.4482V4.55164C24.0004 4.32313 23.8151 4.13788 23.5866 4.13788Z" fill="#FF4B55"/>
<path d="M14.5116 13.8168L16.9671 12.4137L16.4036 12.132C16.2456 12.053 16.1551 11.8824 16.1785 11.7072L16.3619 10.3327L15.3223 10.6352C15.0927 10.702 14.8544 10.5607 14.8027 10.3272L14.7031 9.87723L13.7271 11.0196C13.5917 11.1779 13.334 11.057 13.3693 10.8517L13.7861 8.42786L13.1479 8.60242C12.9615 8.65342 12.7646 8.56858 12.6737 8.39805L12.0017 7.13847V7.1366L12.0012 7.13753L12.0007 7.1366V7.13847L11.3287 8.39805C11.2377 8.56853 11.0408 8.65338 10.8544 8.60242L10.2161 8.42786L10.633 10.8517C10.6683 11.0569 10.4105 11.1779 10.2751 11.0196L9.29907 9.87723L9.19951 10.3272C9.14786 10.5608 8.90954 10.7019 8.6799 10.6352L7.64036 10.3327L7.82369 11.7072C7.84708 11.8823 7.75661 12.053 7.59859 12.132L7.03516 12.4137L9.4906 13.8168C9.74495 13.9622 9.85642 14.2704 9.75381 14.5448L9.5439 15.1062L11.6479 14.9266C11.7643 14.9167 11.8634 15.0104 11.86 15.1272L11.7937 17.3792H12.2075L12.1412 15.1271C12.1378 15.0103 12.2369 14.9166 12.3533 14.9265L14.4583 15.1062L14.2484 14.5448C14.1458 14.2704 14.2573 13.9621 14.5116 13.8168Z" fill="#FF4B55"/>
</g>
<defs>
<clipPath id="clip0_65_1327">
<rect width="24" height="24" fill="white"/>
</clipPath>
</defs>
</svg>
