<svg width="24" height="24" viewBox="0 0 24 24" fill="none" xmlns="http://www.w3.org/2000/svg">
<g clip-path="url(#clip0_65_1418)">
<path d="M23.5864 19.862H0.414056C0.185541 19.862 0.000244141 19.6767 0.000244141 19.4482V4.55169C0.000244141 4.32317 0.185541 4.13788 0.414056 4.13788H23.5864C23.8149 4.13788 24.0002 4.32317 24.0002 4.55169V19.4482C24.0002 19.6768 23.8149 19.862 23.5864 19.862Z" fill="#FF4B55"/>
<path d="M16.552 10.3448H13.6554V7.4483C13.6554 7.21978 13.4701 7.03448 13.2416 7.03448H10.7588C10.5303 7.03448 10.345 7.21978 10.345 7.4483V10.3448H7.44848C7.21996 10.3448 7.03467 10.5301 7.03467 10.7586V13.2414C7.03467 13.4699 7.21996 13.6552 7.44848 13.6552H10.345V16.5518C10.345 16.7803 10.5303 16.9656 10.7588 16.9656H13.2416C13.4701 16.9656 13.6554 16.7803 13.6554 16.5518V13.6551H16.552C16.7805 13.6551 16.9658 13.4698 16.9658 13.2413V10.7586C16.9658 10.5301 16.7805 10.3448 16.552 10.3448Z" fill="#F5F5F5"/>
</g>
<defs>
<clipPath id="clip0_65_1418">
<rect width="24" height="24" fill="white"/>
</clipPath>
</defs>
</svg>
