<svg width="24" height="24" viewBox="0 0 24 24" fill="none" xmlns="http://www.w3.org/2000/svg">
<g clip-path="url(#clip0_65_1280)">
<path d="M23.5861 19.862H0.413812C0.185297 19.862 0 19.6767 0 19.4482V4.55169C0 4.32317 0.185297 4.13788 0.413812 4.13788H23.5862C23.8147 4.13788 24 4.32317 24 4.55169V19.4482C24 19.6768 23.8147 19.862 23.5861 19.862Z" fill="#41479B"/>
<path d="M12.1681 5.9383L12.334 6.43579L12.8584 6.43987C12.9263 6.44038 12.9545 6.52701 12.8998 6.56737L12.478 6.8789L12.6361 7.37886C12.6566 7.44355 12.5829 7.49718 12.5277 7.45766L12.1011 7.15269L11.6744 7.45766C11.6192 7.49713 11.5455 7.4436 11.566 7.37886L11.7241 6.8789L11.3023 6.56737C11.2476 6.52701 11.2758 6.44038 11.3437 6.43987L11.8681 6.43579L12.034 5.9383C12.0554 5.8739 12.1466 5.8739 12.1681 5.9383Z" fill="#FFE15A"/>
<path d="M12.1681 16.6193L12.334 17.1168L12.8584 17.1209C12.9263 17.1214 12.9545 17.208 12.8998 17.2484L12.478 17.5599L12.6361 18.0599C12.6566 18.1246 12.5829 18.1782 12.5277 18.1387L12.1011 17.8337L11.6744 18.1387C11.6192 18.1781 11.5455 18.1246 11.566 18.0599L11.7241 17.5599L11.3023 17.2484C11.2476 17.208 11.2758 17.1214 11.3437 17.1209L11.8681 17.1168L12.034 16.6193C12.0554 16.5549 12.1466 16.5549 12.1681 16.6193Z" fill="#FFE15A"/>
<path d="M17.5087 11.2788L17.6746 11.7763L18.199 11.7804C18.2669 11.7809 18.295 11.8675 18.2404 11.9079L17.8185 12.2194L17.9767 12.7194C17.9972 12.7841 17.9235 12.8377 17.8682 12.7982L17.4416 12.4932L17.015 12.7982C16.9598 12.8376 16.8861 12.7841 16.9066 12.7194L17.0647 12.2194L16.6428 11.9079C16.5882 11.8675 16.6163 11.7809 16.6843 11.7804L17.2087 11.7763L17.3746 11.2788C17.396 11.2144 17.4872 11.2144 17.5087 11.2788Z" fill="#FFE15A"/>
<path d="M6.82751 11.2788L6.99344 11.7763L7.51783 11.7804C7.58576 11.7809 7.61388 11.8675 7.55927 11.9079L7.1374 12.2194L7.29555 12.7194C7.31604 12.7841 7.24235 12.8377 7.18708 12.7982L6.76048 12.4932L6.33387 12.7982C6.27865 12.8376 6.20491 12.7841 6.2254 12.7194L6.38355 12.2194L5.96168 11.9079C5.90707 11.8675 5.9352 11.7809 6.00312 11.7804L6.52751 11.7763L6.69344 11.2788C6.71491 11.2144 6.80609 11.2144 6.82751 11.2788Z" fill="#FFE15A"/>
<path d="M7.62926 8.48995L7.7952 8.98744L8.31959 8.99152C8.38751 8.99203 8.41564 9.07866 8.36103 9.11902L7.93915 9.43055L8.09731 9.93051C8.11779 9.9952 8.04411 10.0488 7.98884 10.0093L7.56223 9.70434L7.13562 10.0093C7.08041 10.0488 7.00667 9.99525 7.02716 9.93051L7.18531 9.43055L6.76344 9.11902C6.70883 9.07866 6.73695 8.99203 6.80487 8.99152L7.32926 8.98744L7.4952 8.48995C7.51667 8.42555 7.60775 8.42555 7.62926 8.48995Z" fill="#FFE15A"/>
<path d="M16.8793 13.8304L17.0452 14.3279L17.5696 14.332C17.6375 14.3325 17.6656 14.4191 17.611 14.4595L17.1892 14.771L17.3473 15.271C17.3678 15.3357 17.2941 15.3893 17.2388 15.3498L16.8122 15.0448L16.3856 15.3498C16.3304 15.3893 16.2567 15.3357 16.2772 15.271L16.4353 14.771L16.0134 14.4595C15.9588 14.4191 15.987 14.3325 16.0549 14.332L16.5793 14.3279L16.7452 13.8304C16.7667 13.766 16.8578 13.766 16.8793 13.8304Z" fill="#FFE15A"/>
<path d="M14.9247 6.53518L15.0906 7.03266L15.615 7.03674C15.6829 7.03726 15.711 7.12388 15.6564 7.16424L15.2346 7.47577L15.3927 7.97574C15.4132 8.04043 15.3395 8.09405 15.2843 8.05454L14.8576 7.74957L14.431 8.05454C14.3758 8.09401 14.3021 8.04047 14.3226 7.97574L14.4807 7.47577L14.0588 7.16424C14.0042 7.12388 14.0324 7.03726 14.1003 7.03674L14.6247 7.03266L14.7906 6.53518C14.812 6.47078 14.9031 6.47078 14.9247 6.53518Z" fill="#FFE15A"/>
<path d="M9.58385 15.7852L9.74979 16.2827L10.2742 16.2868C10.3421 16.2873 10.3702 16.3739 10.3156 16.4143L9.89374 16.7258L10.0519 17.2258C10.0724 17.2905 9.9987 17.3441 9.94343 17.3046L9.51682 16.9996L9.09021 17.3046C9.035 17.344 8.96126 17.2905 8.98174 17.2258L9.1399 16.7258L8.71803 16.4143C8.66342 16.3739 8.69154 16.2873 8.75946 16.2868L9.28385 16.2827L9.44979 15.7852C9.47126 15.7208 9.56234 15.7208 9.58385 15.7852Z" fill="#FFE15A"/>
<path d="M16.7452 8.48995L16.5793 8.98744L16.0549 8.99152C15.987 8.99203 15.9588 9.07866 16.0134 9.11902L16.4353 9.43055L16.2772 9.93051C16.2567 9.9952 16.3304 10.0488 16.3856 10.0093L16.8122 9.70434L17.2388 10.0093C17.2941 10.0488 17.3678 9.99525 17.3473 9.93051L17.1892 9.43055L17.611 9.11902C17.6656 9.07866 17.6375 8.99203 17.5696 8.99152L17.0452 8.98744L16.8793 8.48995C16.8578 8.42555 16.7667 8.42555 16.7452 8.48995Z" fill="#FFE15A"/>
<path d="M7.4952 13.8304L7.32926 14.3279L6.80487 14.332C6.73695 14.3325 6.70883 14.4191 6.76344 14.4595L7.18531 14.771L7.02716 15.271C7.00667 15.3357 7.08036 15.3893 7.13562 15.3498L7.56223 15.0448L7.98884 15.3498C8.04406 15.3893 8.11779 15.3357 8.09731 15.271L7.93915 14.771L8.36103 14.4595C8.41564 14.4191 8.38751 14.3325 8.31959 14.332L7.7952 14.3279L7.62926 13.8304C7.60775 13.766 7.51667 13.766 7.4952 13.8304Z" fill="#FFE15A"/>
<path d="M9.44979 6.53518L9.28385 7.03266L8.75946 7.03674C8.69154 7.03726 8.66342 7.12388 8.71803 7.16424L9.1399 7.47577L8.98174 7.97574C8.96126 8.04043 9.03495 8.09405 9.09021 8.05454L9.51682 7.74957L9.94343 8.05454C9.99865 8.09401 10.0724 8.04047 10.0519 7.97574L9.89374 7.47577L10.3156 7.16424C10.3702 7.12388 10.3421 7.03726 10.2742 7.03674L9.74979 7.03266L9.58385 6.53518C9.56234 6.47078 9.47126 6.47078 9.44979 6.53518Z" fill="#FFE15A"/>
<path d="M14.7904 15.7852L14.6244 16.2827L14.1 16.2868C14.0321 16.2873 14.004 16.3739 14.0586 16.4143L14.4805 16.7258L14.3223 17.2258C14.3018 17.2905 14.3755 17.3441 14.4308 17.3046L14.8574 16.9996L15.284 17.3046C15.3392 17.344 15.413 17.2905 15.3925 17.2258L15.2343 16.7258L15.6562 16.4143C15.7108 16.3739 15.6827 16.2873 15.6148 16.2868L15.0904 16.2827L14.9244 15.7852C14.9029 15.7208 14.8118 15.7208 14.7904 15.7852Z" fill="#FFE15A"/>
</g>
<defs>
<clipPath id="clip0_65_1280">
<rect width="24" height="24" fill="white"/>
</clipPath>
</defs>
</svg>
