<svg width="24" height="24" viewBox="0 0 24 24" fill="none" xmlns="http://www.w3.org/2000/svg">
<g clip-path="url(#clip0_65_1463)">
<path d="M24.0002 9.37941H0.000244141V4.55181C0.000244141 4.3233 0.185541 4.138 0.414056 4.138H23.5864C23.8149 4.138 24.0002 4.3233 24.0002 4.55181L24.0002 9.37941Z" fill="#FAB446"/>
<path d="M23.5864 19.8621H0.414056C0.185541 19.8621 0.000244141 19.6768 0.000244141 19.4483V14.6207H24.0002V19.4483C24.0002 19.6768 23.8149 19.8621 23.5864 19.8621Z" fill="#73AF00"/>
<path d="M24.0002 9.37927H0.000244141V14.6204H24.0002V9.37927Z" fill="#F5F5F5"/>
<path d="M12.0002 14.2242C10.7738 14.2242 9.77612 13.2265 9.77612 12.0001C9.77612 10.7736 10.7738 9.77594 12.0002 9.77594C13.2267 9.77594 14.2244 10.7736 14.2244 12.0001C14.2244 13.2265 13.2267 14.2242 12.0002 14.2242ZM12.0002 10.1897C11.0019 10.1897 10.1899 11.0017 10.1899 12.0001C10.1899 12.9984 11.0019 13.8104 12.0002 13.8104C12.9986 13.8104 13.8106 12.9984 13.8106 12.0001C13.8106 11.0017 12.9986 10.1897 12.0002 10.1897Z" fill="#41479B"/>
<path d="M12.0002 12.2523C12.1394 12.2523 12.2523 12.1394 12.2523 12.0001C12.2523 11.8609 12.1394 11.748 12.0002 11.748C11.8609 11.748 11.748 11.8609 11.748 12.0001C11.748 12.1394 11.8609 12.2523 12.0002 12.2523Z" fill="#41479B"/>
<path d="M12.0006 12.0379L11.3598 12.1026L9.9834 12.0379V11.9623L11.3598 11.8976L12.0006 11.9623V12.0379Z" fill="#41479B"/>
<path d="M12.0005 12.0379L12.6413 12.1026L14.0177 12.0379V11.9623L12.6413 11.8976L12.0005 11.9623V12.0379Z" fill="#41479B"/>
<path d="M11.9624 12.0001L11.8977 11.3593L11.9624 9.98291H12.038L12.1027 11.3593L12.038 12.0001H11.9624Z" fill="#41479B"/>
<path d="M11.9624 12.0001L11.8977 12.6409L11.9624 14.0173H12.038L12.1027 12.6409L12.038 12.0001H11.9624Z" fill="#41479B"/>
<path d="M11.9738 12.0268L11.4749 11.6195L10.5474 10.6005L10.6008 10.547L11.6199 11.4746L12.0272 11.9734L11.9738 12.0268Z" fill="#41479B"/>
<path d="M11.9736 12.0268L12.3809 12.5257L13.4 13.4532L13.4535 13.3997L12.5259 12.3807L12.0271 11.9734L11.9736 12.0268Z" fill="#41479B"/>
<path d="M11.9736 11.9734L12.3809 11.4746L13.4 10.547L13.4535 10.6005L12.5259 11.6195L12.0271 12.0268L11.9736 11.9734Z" fill="#41479B"/>
<path d="M11.9738 11.9734L11.4749 12.3807L10.5474 13.3997L10.6008 13.4532L11.6199 12.5257L12.0272 12.0268L11.9738 11.9734Z" fill="#41479B"/>
<path d="M12.0147 12.0351L11.4474 12.3401L10.151 12.807L10.1221 12.7371L11.369 12.1506L11.9857 11.9651L12.0147 12.0351Z" fill="#41479B"/>
<path d="M12.0148 12.0351L12.6315 11.8496L13.8785 11.2631L13.8495 11.1932L12.5531 11.6601L11.9858 11.9651L12.0148 12.0351Z" fill="#41479B"/>
<path d="M11.9653 12.0146L11.6603 11.4473L11.1934 10.1509L11.2632 10.1219L11.8497 11.3689L12.0352 11.9856L11.9653 12.0146Z" fill="#41479B"/>
<path d="M11.9653 12.0146L12.1508 12.6313L12.7373 13.8782L12.8072 13.8492L12.3402 12.5529L12.0353 11.9856L11.9653 12.0146Z" fill="#41479B"/>
<path d="M11.9857 12.0351L11.369 11.8496L10.1221 11.2631L10.151 11.1932L11.4474 11.6601L12.0147 11.9651L11.9857 12.0351Z" fill="#41479B"/>
<path d="M11.9858 12.0351L12.5531 12.3401L13.8495 12.807L13.8785 12.7371L12.6315 12.1506L12.0148 11.9651L11.9858 12.0351Z" fill="#41479B"/>
<path d="M11.9653 11.9856L12.1508 11.3689L12.7373 10.1219L12.8072 10.1509L12.3402 11.4473L12.0353 12.0146L11.9653 11.9856Z" fill="#41479B"/>
<path d="M11.9653 11.9856L11.6603 12.5529L11.1934 13.8492L11.2632 13.8782L11.8497 12.6313L12.0352 12.0146L11.9653 11.9856Z" fill="#41479B"/>
<path d="M12.0003 12.3402C12.1881 12.3402 12.3404 12.1879 12.3404 12C12.3404 11.8122 12.1881 11.6599 12.0003 11.6599C11.8124 11.6599 11.6602 11.8122 11.6602 12C11.6602 12.1879 11.8124 12.3402 12.0003 12.3402Z" fill="#F5F5F5"/>
<path d="M12.0003 12.204C12.113 12.204 12.2043 12.1127 12.2043 12.0001C12.2043 11.8875 12.113 11.7961 12.0003 11.7961C11.8877 11.7961 11.7964 11.8875 11.7964 12.0001C11.7964 12.1127 11.8877 12.204 12.0003 12.204Z" fill="#41479B"/>
</g>
<defs>
<clipPath id="clip0_65_1463">
<rect width="24" height="24" fill="white"/>
</clipPath>
</defs>
</svg>
