<svg width="24" height="24" viewBox="0 0 24 24" fill="none" xmlns="http://www.w3.org/2000/svg">
<g clip-path="url(#clip0_65_1448)">
<path d="M23.5866 19.8621H0.4143C0.185785 19.8621 0.000488281 19.6768 0.000488281 19.4483V4.55175C0.000488281 4.32324 0.185785 4.13794 0.4143 4.13794H23.5867C23.8152 4.13794 24.0005 4.32324 24.0005 4.55175V19.4483C24.0004 19.6768 23.8151 19.8621 23.5866 19.8621Z" fill="#73AF00"/>
<path d="M4.96581 9.48177C5.00659 9.74319 5.16461 9.82522 5.302 9.81449C5.464 9.80193 5.60608 9.6538 5.60608 9.49733V8.60024C5.60608 8.55534 5.64264 8.51868 5.68764 8.51868C5.73264 8.51868 5.7692 8.55529 5.7692 8.60024V9.50118C5.7692 9.6095 5.82273 9.71052 5.9125 9.77118C5.96729 9.8083 6.03109 9.82738 6.09536 9.82738C6.13628 9.82738 6.17739 9.81955 6.21658 9.80394L6.29809 9.77136C6.30559 10.5244 6.25979 11.1862 6.25895 11.1984C6.25257 11.2882 6.32017 11.3663 6.41003 11.3727C6.41401 11.373 6.4179 11.3731 6.42184 11.3731C6.50668 11.3731 6.57826 11.3075 6.5844 11.2216C6.5882 11.1686 6.63845 10.4438 6.6234 9.64124L6.67272 9.62155C6.71593 9.60435 6.7645 9.60641 6.80607 9.62713C6.98575 9.71666 7.20193 9.68174 7.34392 9.5398L7.37331 9.51046C7.50512 9.37841 7.55045 9.1866 7.49143 9.00965L7.35254 8.59298C7.42764 8.61557 7.51014 8.58234 7.54642 8.51001C7.58673 8.42943 7.55406 8.33146 7.47348 8.29115L7.14728 8.12802C7.08826 8.0984 7.01743 8.10749 6.96742 8.15062C6.91754 8.19398 6.8987 8.26293 6.91956 8.32551L7.18201 9.11291C7.20165 9.17183 7.18656 9.23586 7.14264 9.27983L7.11329 9.30918C7.07078 9.35169 7.006 9.36205 6.95186 9.33529C6.84615 9.28246 6.72578 9.27257 6.61286 9.30135C6.58993 8.7778 6.53354 8.25646 6.41345 7.89604C6.385 7.81063 6.29279 7.76432 6.20706 7.79296C6.12161 7.82132 6.07543 7.91366 6.10393 7.99926C6.22145 8.35171 6.27264 8.88885 6.29083 9.42294L6.09554 9.50104V8.6001C6.09554 8.37519 5.91259 8.19229 5.68773 8.19229C5.46287 8.19229 5.27992 8.37515 5.27992 8.6001V9.38971L5.11351 8.56776C5.0958 8.47935 5.00983 8.42169 4.92133 8.44016C4.83297 8.45816 4.77587 8.54418 4.79383 8.63244L4.96581 9.48177Z" fill="#F5F5F5"/>
<path d="M5.27982 8.11089C5.36992 8.11089 5.44295 8.03796 5.44295 7.94777V7.78465C5.44295 7.69451 5.36992 7.62152 5.27982 7.62152C5.18973 7.62152 5.1167 7.69446 5.1167 7.78465V7.94777C5.1167 8.03791 5.18973 8.11089 5.27982 8.11089Z" fill="#F5F5F5"/>
<path d="M6.91093 7.94777H7.07405C7.16415 7.94777 7.23718 7.87483 7.23718 7.78465C7.23718 7.69451 7.16415 7.62152 7.07405 7.62152H6.91093C6.82083 7.62152 6.7478 7.69446 6.7478 7.78465C6.7478 7.87483 6.82083 7.94777 6.91093 7.94777Z" fill="#F5F5F5"/>
<path d="M5.8484 10.0915L5.03283 10.5809C4.95553 10.6273 4.93055 10.7274 4.97691 10.8047C5.00747 10.8557 5.06147 10.8839 5.11692 10.8839C5.14551 10.8839 5.17444 10.8764 5.20073 10.8606L6.01631 10.3712C6.09361 10.3249 6.11859 10.2247 6.07223 10.1474C6.02587 10.0702 5.92575 10.0452 5.8484 10.0915Z" fill="#F5F5F5"/>
<path d="M8.0474 10.38L8.05124 10.3774C8.06493 10.4326 8.08841 10.4859 8.12652 10.5307C8.1928 10.6088 8.29218 10.648 8.40449 10.6387C8.56382 10.6271 8.6721 10.5543 8.74382 10.4603C8.75474 10.4678 8.76622 10.4747 8.77822 10.4807C8.86639 10.5251 8.96835 10.5218 9.06542 10.4714C9.31194 10.3445 9.36505 10.0508 9.35755 9.89721C9.35314 9.80768 9.27702 9.74449 9.18772 9.74271C9.09814 9.74656 9.02839 9.82254 9.03163 9.91207C9.03172 9.91413 9.03533 10.1077 8.91702 10.1795C8.89771 10.1526 8.87483 10.0921 8.86621 10.0421C8.85242 9.9581 8.77532 9.89965 8.69235 9.90635C8.60778 9.91301 8.54244 9.98407 8.54216 10.069C8.54207 10.0927 8.53682 10.302 8.37524 10.3195C8.35644 10.2939 8.35611 10.1859 8.37463 10.106C8.39024 10.0406 8.36399 9.97221 8.30858 9.93401C8.25308 9.89562 8.17991 9.89562 8.12418 9.9334L8.03315 9.99532C7.98993 9.04939 7.89032 7.94712 7.8891 7.93301C7.88099 7.84348 7.80215 7.77673 7.71191 7.78536C7.62219 7.79347 7.55605 7.87283 7.56421 7.96268C7.56561 7.97778 7.68079 9.2531 7.71632 10.227C7.70797 10.2349 7.6994 10.2436 7.69124 10.2512C7.62674 10.0886 7.49886 9.98618 7.33419 9.97057C7.10179 9.95004 6.84997 10.1082 6.75969 10.3341C6.68188 10.5284 6.73087 10.7194 6.88438 10.8206C6.99477 10.8934 7.16136 10.9163 7.37085 10.8429C7.31971 11.0225 7.22657 11.2048 7.10554 11.3457C6.99712 11.4721 6.81608 11.6178 6.58443 11.6113C6.44957 11.606 6.34598 11.5619 6.26765 11.4762C6.07879 11.2699 6.09505 10.8965 6.0952 10.8926C6.09988 10.8027 6.03107 10.7261 5.9413 10.7211C5.85088 10.7116 5.77438 10.785 5.76941 10.875C5.76829 10.8957 5.74462 11.3864 6.02554 11.6949C6.16382 11.847 6.34752 11.9284 6.57158 11.9372C6.58251 11.9377 6.59343 11.9378 6.6044 11.9378C6.87726 11.9378 7.14201 11.804 7.3529 11.5582C7.55127 11.3272 7.68599 11.0134 7.7264 10.7222C7.72588 11.2802 7.3896 11.9095 6.94377 12.1868C6.75444 12.3043 6.45927 12.4104 6.12679 12.2465C5.71691 12.0442 5.76576 11.5757 5.76791 11.5566C5.77912 11.4672 5.7157 11.3857 5.62631 11.3745C5.53734 11.3637 5.45531 11.4266 5.44424 11.5161C5.44059 11.5453 5.36221 12.2329 5.98246 12.5389C6.14179 12.6176 6.30838 12.6566 6.47629 12.6566C6.69196 12.6566 6.90965 12.5921 7.11599 12.4638C7.6588 12.1263 8.05279 11.3933 8.05279 10.7208C8.05274 10.6157 8.05072 10.5008 8.0474 10.38ZM7.06382 10.5482C7.03466 10.5289 7.05744 10.4673 7.06237 10.455C7.09672 10.369 7.20416 10.2946 7.28999 10.2946C7.2944 10.2946 7.29885 10.2947 7.30311 10.2952C7.32397 10.2971 7.37933 10.3024 7.40315 10.4255C7.40568 10.4386 7.40783 10.4519 7.40952 10.4656C7.22774 10.5724 7.10587 10.5758 7.06382 10.5482Z" fill="#F5F5F5"/>
<path d="M5.36228 12.0484C5.28498 12.003 5.18514 12.029 5.1393 12.1063C5.1318 12.1188 5.12186 12.1326 5.11173 12.1449C5.10995 12.1408 5.10822 12.1364 5.10644 12.1315C5.03842 11.9501 5.08684 11.6706 5.11131 11.5781C5.13433 11.4912 5.08253 11.402 4.99562 11.3787C4.90881 11.3564 4.81951 11.407 4.79617 11.494C4.78431 11.5381 4.68405 11.9341 4.80095 12.246C4.87581 12.4455 4.99075 12.4958 5.07405 12.5026C5.08145 12.5032 5.08876 12.5036 5.09603 12.5036C5.27162 12.5036 5.38848 12.3266 5.42097 12.2706C5.46601 12.1929 5.43962 12.094 5.36228 12.0484Z" fill="#F5F5F5"/>
<path d="M8.37222 9.08956C8.40752 9.08956 8.44305 9.07822 8.47286 9.05469L9.29524 8.40908C9.30658 8.40017 9.31385 8.3885 9.32214 8.37753C9.4406 8.3061 9.52071 8.17747 9.52071 8.02939C9.52071 7.80449 9.33775 7.62158 9.11289 7.62158C8.88804 7.62158 8.70508 7.80444 8.70508 8.02939C8.70508 8.15525 8.76358 8.26649 8.8534 8.34135L8.27135 8.79828C8.20052 8.85388 8.18819 8.95644 8.24379 9.02717C8.27599 9.06819 8.3239 9.08956 8.37222 9.08956ZM9.11294 7.94778C9.15794 7.94778 9.1945 7.98439 9.1945 8.02935C9.1945 8.0743 9.15794 8.11091 9.11294 8.11091C9.06794 8.11091 9.03138 8.0743 9.03138 8.02935C9.03138 7.98439 9.06794 7.94778 9.11294 7.94778Z" fill="#F5F5F5"/>
<path d="M8.91994 8.93493C8.83402 8.90629 8.742 8.9526 8.71355 9.03801C8.69611 9.09023 8.61722 9.35934 8.77711 9.51904C8.83917 9.58115 8.92069 9.61223 9.02081 9.61204C9.0877 9.61204 9.16289 9.59835 9.24614 9.57046C9.33159 9.5421 9.37777 9.44976 9.34927 9.36416C9.32077 9.27876 9.22856 9.23226 9.14288 9.26109C9.05175 9.29137 9.01322 9.28644 9.0097 9.28959C9.0001 9.2654 9.00642 9.19255 9.02316 9.14048C9.05138 9.05535 9.0052 8.96329 8.91994 8.93493Z" fill="#F5F5F5"/>
<path d="M10.7869 8.26061C10.8022 8.26506 10.8175 8.26712 10.8327 8.26712C10.9033 8.26712 10.9684 8.22095 10.9892 8.1497L11.0843 7.8235C11.1096 7.73702 11.0599 7.64636 10.9735 7.62119C10.8868 7.59616 10.7964 7.64556 10.7712 7.73205L10.676 8.05825C10.6508 8.14487 10.7004 8.23548 10.7869 8.26061Z" fill="#F5F5F5"/>
<path d="M9.83625 8.2415C9.86213 8.25664 9.89054 8.26381 9.91843 8.26381C9.97449 8.26381 10.0291 8.23498 10.0594 8.18309C10.1048 8.10537 10.0787 8.0053 10.0009 7.95992C9.96811 7.9408 9.97257 7.8868 9.97379 7.87611C9.97866 7.83326 10.0042 7.781 10.0486 7.76717C10.1347 7.74045 10.1827 7.649 10.1559 7.56298C10.129 7.47683 10.0378 7.42916 9.95161 7.45559C9.789 7.50622 9.67046 7.65678 9.6496 7.83903C9.63029 8.00862 9.70182 8.16284 9.83625 8.2415Z" fill="#F5F5F5"/>
<path d="M8.54203 10.8839C8.45194 10.8839 8.37891 10.9568 8.37891 11.047C8.37891 11.1266 8.43595 11.1929 8.51142 11.2072C8.52 11.2198 8.54198 11.263 8.54198 11.3732C8.54198 11.4633 8.61501 11.5363 8.70511 11.5363C8.7952 11.5363 8.86823 11.4634 8.86823 11.3732C8.86828 10.8894 8.55534 10.8839 8.54203 10.8839Z" fill="#F5F5F5"/>
<path d="M11.3093 10.2084C11.3298 10.2118 11.3502 10.2133 11.3707 10.2133C11.4989 10.2133 11.6283 10.1487 11.7566 10.0204C11.8203 9.95675 11.8203 9.85353 11.7566 9.78982C11.6929 9.72612 11.5897 9.72612 11.5259 9.78982C11.4284 9.88746 11.3759 9.88953 11.3624 9.88648C11.3313 9.88203 11.3031 9.84139 11.2968 9.83028C11.2559 9.75092 11.1589 9.71928 11.079 9.75921C10.9984 9.79953 10.9657 9.8975 11.0061 9.97807C11.0161 9.99832 11.1103 10.1761 11.3093 10.2084Z" fill="#F5F5F5"/>
<path d="M14.082 9.06212C14.081 9.05959 14.08 9.0572 14.0792 9.05495C14.0503 8.97025 13.9579 8.92417 13.8734 8.953C13.7878 8.98136 13.7416 9.0737 13.7701 9.15929C13.7828 9.1975 13.8555 9.38931 14.0355 9.4135C14.0476 9.41509 14.0595 9.41589 14.0714 9.41589C14.1844 9.41589 14.2904 9.34276 14.3869 9.19811C14.4368 9.12325 14.4165 9.02195 14.3416 8.97193C14.2665 8.92206 14.1652 8.94212 14.1154 9.01722C14.1025 9.03648 14.0914 9.05115 14.082 9.06212Z" fill="#F5F5F5"/>
<path d="M13.7618 12.0256C13.7618 11.33 13.7313 10.6775 13.6888 10.1057C13.9204 10.5074 14.1288 10.9133 14.2615 11.2674C14.2861 11.3329 14.3483 11.3732 14.4143 11.3732C14.4333 11.3732 14.4526 11.3698 14.4715 11.3628C14.5559 11.3311 14.5986 11.2371 14.567 11.1527C14.3605 10.6023 13.9894 9.94681 13.6237 9.3649C13.5345 8.48623 13.4347 7.92851 13.4329 7.91858C13.4168 7.82989 13.3321 7.76998 13.2433 7.78728C13.1547 7.80336 13.0959 7.88825 13.112 7.97684C13.1133 7.98392 13.1647 8.27122 13.2261 8.75473C13.1008 8.56878 12.9843 8.40101 12.8866 8.26292L12.8946 8.26545C12.9805 8.29409 13.0725 8.24778 13.101 8.16237C13.1295 8.07683 13.0833 7.98444 12.9979 7.95608L12.5085 7.79295C12.4406 7.77003 12.3661 7.79426 12.3246 7.85225C12.3135 7.86772 12.3059 7.88469 12.3008 7.90222C12.2031 7.83003 12.0779 7.77134 11.9603 7.82056C11.8892 7.85005 11.8044 7.92425 11.8044 8.11076C11.8044 8.25397 11.8591 8.40879 11.917 8.57286C12.013 8.84492 12.0732 9.04498 11.9715 9.14042C11.9153 9.19311 11.8591 9.21303 11.8043 9.1992C11.7037 9.1737 11.6041 9.03973 11.5378 8.84079C11.5349 8.83217 11.5289 8.82589 11.5248 8.81815C11.5591 8.5655 11.5441 8.26109 11.475 7.91567C11.4574 7.82726 11.3717 7.76975 11.2831 7.78775C11.1947 7.80542 11.1375 7.8913 11.1551 7.9797C11.2616 8.51234 11.2297 8.94687 11.0697 9.14206C11.0078 9.21757 10.9303 9.25259 10.8257 9.25259C10.7927 9.25259 10.7701 9.24209 10.7477 9.21626C10.619 9.06795 10.6195 8.58945 10.6611 8.29681C10.6677 8.25017 10.6537 8.20269 10.6227 8.16697C10.5917 8.13129 10.5468 8.11076 10.4995 8.11076C10.2189 8.11076 10.1125 8.42998 10.0186 8.71161C9.9774 8.8354 9.90062 9.06556 9.84709 9.08947C9.74837 9.08947 9.68452 8.79954 9.68396 8.59995C9.68368 8.50995 9.61079 8.43715 9.52084 8.43715C9.52084 8.43715 9.5207 8.43715 9.52056 8.43715C9.43056 8.43715 9.35767 8.51009 9.35767 8.60009C9.35767 8.97631 9.48582 9.41567 9.84704 9.41567C10.116 9.41567 10.2249 9.12256 10.3162 8.85017C10.332 9.06678 10.3809 9.29122 10.5012 9.42982C10.5857 9.52732 10.6979 9.57875 10.8257 9.57875C11.0271 9.57875 11.1986 9.49925 11.3219 9.34887C11.3443 9.32168 11.3635 9.29042 11.3825 9.25887C11.4772 9.3935 11.5934 9.48232 11.7243 9.51537C11.7627 9.52507 11.8013 9.53 11.8395 9.53C11.9654 9.53 12.0885 9.47806 12.1947 9.37817C12.2168 9.35736 12.2324 9.33471 12.2492 9.31236C12.2891 9.32375 12.3295 9.3305 12.3697 9.3305C12.5018 9.3305 12.6291 9.27729 12.708 9.22662C12.7835 9.1782 12.8054 9.07817 12.7574 9.00232C12.7094 8.92667 12.6089 8.90403 12.5328 8.95151C12.5314 8.95217 12.4225 9.01479 12.3482 9.00008C12.3484 8.82125 12.2837 8.63136 12.2246 8.46406C12.191 8.36876 12.1565 8.27117 12.1403 8.19139C12.1537 8.20273 12.1668 8.2145 12.1786 8.22594C12.2422 8.28964 12.3455 8.28964 12.4092 8.22594C12.4197 8.21539 12.4258 8.20259 12.4328 8.19026C12.6019 8.42319 12.9497 8.91265 13.3074 9.47689C13.3757 10.1704 13.4356 11.0551 13.4356 12.0254C13.4356 12.1155 13.5086 12.1885 13.5987 12.1885C13.6888 12.1887 13.7618 12.1158 13.7618 12.0256Z" fill="#F5F5F5"/>
<path d="M13.9249 8.43714C13.9249 8.52728 13.9979 8.60027 14.088 8.60027C14.1781 8.60027 14.2511 8.52733 14.2511 8.43714C14.2511 8.24519 14.1009 7.93506 14.0708 7.87483C14.0305 7.79439 13.9326 7.76191 13.8519 7.80189C13.7714 7.8422 13.7386 7.94017 13.779 8.02075C13.8378 8.13845 13.9249 8.35206 13.9249 8.43714Z" fill="#F5F5F5"/>
<path d="M13.1826 12.0434C13.1026 12.0026 13.0044 12.035 12.9636 12.1153C12.9461 12.1495 12.919 12.1876 12.8961 12.2121C12.8888 12.1473 12.9061 12.0178 12.939 11.9104C12.9609 11.8388 12.9312 11.7613 12.867 11.7228C12.8031 11.6841 12.7206 11.6942 12.6677 11.7472L12.3415 12.0734C12.2778 12.1371 12.2778 12.2403 12.3415 12.304C12.4052 12.3677 12.5084 12.3677 12.5721 12.304L12.5804 12.2957C12.5945 12.3612 12.6215 12.4209 12.6677 12.4671C12.7289 12.5283 12.8028 12.5606 12.8796 12.5606C12.8946 12.5606 12.9095 12.5593 12.9245 12.557C13.1093 12.527 13.2243 12.3233 13.2552 12.2616C13.2952 12.1812 13.2628 12.0839 13.1826 12.0434Z" fill="#F5F5F5"/>
<path d="M13.1195 10.7308H11.9698C11.98 10.6903 11.9905 10.6515 12.0013 10.6147C12.4597 10.5194 12.7322 10.3715 12.8123 10.174C12.84 10.1055 12.8689 9.96712 12.7509 9.80797C12.6446 9.66458 12.4945 9.60027 12.3386 9.6321C12.1068 9.67907 11.9002 9.92882 11.7521 10.3287C11.2916 10.4075 10.9969 10.5728 10.8103 10.7359C10.7441 10.0674 10.4846 9.67035 10.472 9.65146C10.4219 9.57641 10.3206 9.55616 10.2458 9.60618C10.1708 9.65619 10.1506 9.75735 10.2005 9.83235C10.2035 9.8368 10.4993 10.2893 10.4993 11.0468C10.4993 11.7913 9.90566 12.3517 9.52068 12.3517C9.33754 12.3517 9.25733 12.134 9.22213 11.9499C9.5991 11.6857 9.93172 11.38 10.0052 11.0863C10.1046 10.6888 9.97949 10.3959 9.89671 10.2021C9.89282 10.1931 9.88874 10.1836 9.88461 10.1737C9.88813 10.1769 9.89146 10.1802 9.89479 10.1834C9.95835 10.2471 10.0617 10.2471 10.1254 10.1834C10.1891 10.1197 10.1891 10.0165 10.1254 9.95277C10.03 9.85733 9.84487 9.70743 9.67654 9.77788C9.60543 9.80737 9.52068 9.88157 9.52068 10.0681C9.52068 10.1524 9.55588 10.2347 9.59666 10.3303C9.67011 10.5021 9.76147 10.7161 9.68863 11.0072C9.64555 11.1795 9.43396 11.3886 9.15473 11.5961C9.12477 11.5603 9.08155 11.5363 9.0313 11.5363H9.03102C8.94102 11.5364 8.86813 11.6092 8.86813 11.6992C8.86813 11.7285 8.86944 11.7599 8.87132 11.7921C8.52224 12.0182 8.12723 12.2274 7.82188 12.3663C7.73995 12.4036 7.70371 12.5002 7.74098 12.5823C7.76831 12.6423 7.82756 12.6778 7.88952 12.6778C7.91212 12.6778 7.93509 12.6733 7.95693 12.6632C8.04862 12.6215 8.48395 12.4187 8.93113 12.1416C9.01349 12.4212 9.18801 12.6779 9.52063 12.6779C9.91194 12.6779 10.3558 12.358 10.612 11.8803C10.643 11.9349 10.6785 11.9872 10.7209 12.036C11.1315 12.5094 11.9334 12.5148 11.9674 12.5148C12.0552 12.5148 12.1272 12.4453 12.1304 12.3576C12.1335 12.2698 12.0666 12.1953 11.979 12.1891C11.9777 12.1889 11.8477 12.1746 11.7755 12.0902C11.7318 12.0392 11.7144 11.9691 11.7221 11.876C11.7388 11.675 12.3872 11.5247 12.9586 11.5158C13.0267 11.5147 13.087 11.4715 13.1098 11.4073L13.273 10.9486C13.2907 10.8988 13.2831 10.8432 13.2525 10.8C13.2222 10.7566 13.1724 10.7308 13.1195 10.7308ZM12.4035 9.95193C12.4066 9.95132 12.4107 9.95033 12.4159 9.95033C12.4315 9.95033 12.4561 9.95797 12.4889 10.0023C12.4951 10.0106 12.515 10.0389 12.51 10.0513C12.4913 10.0975 12.3786 10.1738 12.144 10.243C12.2472 10.0416 12.3481 9.96308 12.4035 9.95193ZM11.4184 12.0961C11.2527 12.0423 11.0838 11.9569 10.9669 11.8217C10.8384 11.6731 10.791 11.4851 10.8221 11.2473C10.8268 11.2348 10.8375 11.2101 10.8561 11.1781C11.0858 11.1571 11.6995 11.2476 11.742 11.4233C11.5527 11.5199 11.4133 11.6558 11.3972 11.8489C11.3891 11.9458 11.399 12.0278 11.4184 12.0961Z" fill="#F5F5F5"/>
<path d="M14.8952 8.38548L14.7321 7.89611C14.7058 7.81745 14.6242 7.77043 14.5432 7.78825C14.4619 7.80564 14.4067 7.88125 14.415 7.96393C14.5276 9.08949 14.7405 11.2845 14.7405 11.5362C14.7405 11.7623 14.3385 12.2073 13.6889 12.5321C13.6083 12.5724 13.5756 12.6704 13.6159 12.751C13.6445 12.8082 13.7021 12.8411 13.762 12.8411C13.7865 12.8411 13.8114 12.8355 13.8348 12.8239C14.4282 12.5272 15.0667 11.9977 15.0667 11.5362C15.0667 11.2952 14.9001 9.5612 14.8046 8.58714C14.8819 8.55414 14.9223 8.46676 14.8952 8.38548Z" fill="#F5F5F5"/>
<path d="M16.2563 9.85735C16.2877 9.88875 16.3294 9.90516 16.3717 9.90516C16.3993 9.90516 16.4271 9.89817 16.4523 9.88378C16.5161 9.84745 16.5478 9.77292 16.5297 9.70172C16.5005 9.58706 16.4908 9.44367 16.5062 9.38508C16.5879 9.38761 16.6638 9.32949 16.6758 9.2452C16.6885 9.156 16.6266 9.07331 16.5374 9.06061C16.4295 9.04599 16.3349 9.07767 16.2687 9.15122C16.2259 9.19903 16.2004 9.26034 16.1865 9.3263L15.9976 9.13739C15.9339 9.07369 15.8307 9.07369 15.767 9.13739C15.7033 9.20109 15.7033 9.30431 15.767 9.36802L16.2563 9.85735Z" fill="#F5F5F5"/>
<path d="M16.6234 10.0275L16.0117 10.4659C15.9386 10.5183 15.9216 10.6202 15.9741 10.6935C16.006 10.7379 16.0561 10.7615 16.1069 10.7615C16.1398 10.7615 16.173 10.7516 16.2018 10.731L16.8135 10.2926C16.8867 10.2402 16.9036 10.1382 16.8511 10.065C16.7985 9.99165 16.6964 9.97458 16.6234 10.0275Z" fill="#F5F5F5"/>
<path d="M16.569 10.6409C16.5177 10.707 16.525 10.8 16.5833 10.8572C16.5903 10.869 16.6221 10.9314 16.6164 11.092C16.6132 11.1822 16.6836 11.2577 16.7736 11.2609C16.7755 11.261 16.7776 11.261 16.7795 11.261C16.867 11.261 16.9393 11.1917 16.9424 11.1038C16.9543 10.7709 16.8453 10.6492 16.798 10.6123C16.727 10.5568 16.6243 10.5699 16.569 10.6409Z" fill="#F5F5F5"/>
<path d="M17.9927 11.8421C18.0828 11.8421 18.1558 11.7692 18.1558 11.679C18.1558 11.4383 18.1434 11.1696 18.1232 10.8901C18.285 11.1551 18.4193 11.3995 18.5055 11.6005C18.5319 11.6624 18.5921 11.6994 18.6555 11.6994C18.6769 11.6994 18.6987 11.6952 18.7196 11.6861C18.8024 11.6506 18.8407 11.5547 18.8052 11.4721C18.6559 11.1236 18.3768 10.6619 18.0589 10.1854C17.9949 9.58667 17.9114 9.00003 17.8464 8.57923C17.8809 8.58275 17.9168 8.57431 17.9482 8.55387C17.9998 8.52087 18.0239 8.46354 18.0204 8.4065C18.0246 8.42253 18.0291 8.43861 18.0385 8.45337C18.0396 8.45497 18.1444 8.62807 18.0979 8.85275C18.0796 8.94082 18.1364 9.02717 18.2246 9.04545C18.2358 9.04765 18.2469 9.04882 18.2578 9.04882C18.3335 9.04882 18.4014 8.99576 18.4174 8.9187C18.4911 8.56236 18.321 8.28968 18.3137 8.2782C18.2653 8.20236 18.1644 8.18009 18.0885 8.22818C18.0367 8.26114 18.0123 8.31851 18.0156 8.3757C18.0114 8.35957 18.0068 8.34336 17.9972 8.32859L17.7219 7.90044C17.6799 7.83509 17.5976 7.80865 17.5254 7.83673C17.453 7.86509 17.4106 7.94042 17.424 8.01687C17.4263 8.02972 17.551 8.7455 17.6615 9.60823C17.5364 9.43165 17.4114 9.25901 17.2901 9.0942C17.2704 8.8474 17.2507 8.61926 17.2335 8.43059C17.2425 8.42792 17.2514 8.4244 17.2601 8.42009C17.3407 8.37978 17.3734 8.28181 17.333 8.20123L17.1699 7.87503C17.1347 7.80462 17.0543 7.76956 16.9787 7.79122C16.9031 7.8132 16.8539 7.88581 16.8617 7.96419C16.8811 8.15886 16.9014 8.37434 16.9213 8.6007C16.8181 8.46472 16.7227 8.34022 16.641 8.23479C16.6569 8.22111 16.6705 8.20409 16.6805 8.18398C16.7208 8.1034 16.6882 8.00543 16.6076 7.96512L16.2814 7.802C16.2129 7.76792 16.1299 7.78578 16.0816 7.84536C16.0335 7.90494 16.0332 7.98997 16.0811 8.04987C16.0899 8.06084 16.4915 8.56428 16.9719 9.21406C17.0553 10.2918 17.1108 11.4129 17.0324 11.6479C17.0181 11.6909 16.993 11.7416 16.9695 11.7433C16.871 11.757 16.6357 11.5366 16.5175 11.3004C16.4494 11.1643 16.3514 11.1502 16.299 11.1525C16.1237 11.1634 16.0553 11.3562 15.931 11.7064C15.8419 11.9573 15.7312 12.2692 15.6068 12.3968C15.5395 12.3145 15.4524 12.0383 15.404 11.7546C15.4267 11.8173 15.4854 11.8627 15.556 11.8627C15.6461 11.8627 15.7192 11.7897 15.7192 11.6996C15.7192 11.4563 15.5491 9.60373 15.454 8.58847C15.5334 8.55659 15.5751 8.4679 15.5477 8.38568L15.3846 7.89631C15.3584 7.81765 15.2779 7.77125 15.196 7.78831C15.1149 7.80551 15.0595 7.88084 15.0674 7.96339C15.1783 9.12701 15.3861 11.3746 15.3926 11.6848C15.3922 11.682 15.3916 11.6793 15.3912 11.6764C15.3786 11.5872 15.2953 11.5261 15.2067 11.538C15.1175 11.5509 15.0556 11.6335 15.0683 11.7226C15.1159 12.056 15.2377 12.6293 15.518 12.7226C15.5401 12.7301 15.5699 12.7368 15.6049 12.7368C15.6692 12.7368 15.7508 12.714 15.8344 12.6304C16.0121 12.4528 16.1323 12.1141 16.2384 11.8155C16.2623 11.7479 16.2908 11.668 16.3175 11.5995C16.4671 11.818 16.7282 12.0901 16.9927 12.0688C17.0857 12.0621 17.2549 12.0121 17.3419 11.7512C17.4286 11.491 17.3943 10.5835 17.3359 9.71473C17.4733 9.90734 17.6108 10.1046 17.7421 10.2994C17.793 10.7878 17.8294 11.2772 17.8294 11.6792C17.8296 11.7691 17.9026 11.8421 17.9927 11.8421Z" fill="#F5F5F5"/>
<path d="M19.2304 10.9841C19.1148 10.1233 18.9539 9.12617 18.8519 8.51417C18.8979 8.52551 18.9481 8.51623 18.9886 8.48515C19.0602 8.43054 19.074 8.32808 19.0193 8.25659L18.7236 7.86917C18.678 7.80959 18.5975 7.78859 18.5287 7.81869C18.4598 7.84878 18.4204 7.92209 18.4332 7.99615C18.4362 8.01284 18.727 9.68731 18.9069 11.0275C18.9757 11.5396 18.8754 11.9973 18.6384 12.2515C18.4861 12.4148 18.2843 12.4886 18.0401 12.4744C17.9504 12.4697 17.8726 12.5372 17.867 12.627C17.8614 12.7169 17.9296 12.7943 18.0196 12.8C18.0471 12.8018 18.0743 12.8025 18.1012 12.8025C18.4088 12.8025 18.6757 12.6898 18.877 12.4737C19.1844 12.1441 19.3133 11.6011 19.2304 10.9841Z" fill="#F5F5F5"/>
<path d="M17.436 12.0593C17.376 12.1245 17.3806 12.2271 17.444 12.2886C17.4529 12.2972 17.4635 12.3141 17.4635 12.3224C17.4636 12.327 17.457 12.3407 17.4389 12.3589C17.3752 12.4226 17.3752 12.5258 17.4389 12.5895C17.4708 12.6214 17.5125 12.6373 17.5542 12.6373C17.596 12.6373 17.6377 12.6214 17.6696 12.5895C17.7731 12.4861 17.792 12.3811 17.7897 12.3112C17.7847 12.1607 17.6822 12.0635 17.6617 12.0455C17.595 11.9875 17.4959 11.9945 17.436 12.0593Z" fill="#F5F5F5"/>
<path d="M16.8609 15.6366H16.6978H15.7191V15.4734C15.7191 15.3833 15.6461 15.3103 15.556 15.3103C15.4659 15.3103 15.3929 15.3832 15.3929 15.4734V15.6366H6.7478C7.07401 15.9628 7.72646 16.1259 8.21583 16.1259C8.56678 16.1259 12.9445 16.1259 15.3929 16.1259V16.4521C15.3929 16.5423 15.4659 16.6153 15.556 16.6153H16.8609C17.1307 16.6153 17.3503 16.3957 17.3503 16.1259C17.3503 15.856 17.1307 15.6366 16.8609 15.6366ZM16.8609 16.289H15.7191V16.1259C16.5051 16.1259 17.024 16.1259 17.024 16.1259L16.9947 16.0381C17.0116 16.0638 17.024 16.0928 17.024 16.1259C17.024 16.2159 16.9508 16.289 16.8609 16.289Z" fill="#F5F5F5"/>
</g>
<defs>
<clipPath id="clip0_65_1448">
<rect width="24" height="24" fill="white"/>
</clipPath>
</defs>
</svg>
