<svg width="24" height="24" viewBox="0 0 24 24" fill="none" xmlns="http://www.w3.org/2000/svg">
<g clip-path="url(#clip0_65_1266)">
<path d="M23.5861 19.8621H0.413812C0.185297 19.8621 0 19.6768 0 19.4483V4.55174C0 4.32322 0.185297 4.13792 0.413812 4.13792H23.5862C23.8147 4.13792 24 4.32322 24 4.55174V19.4483C24 19.6768 23.8147 19.8621 23.5861 19.8621Z" fill="#F5F5F5"/>
<path d="M24 5.34753H0V4.55174C0 4.32322 0.185297 4.13792 0.413812 4.13792H23.5862C23.8147 4.13792 24 4.32322 24 4.55174L24 5.34753Z" fill="#FF4B55"/>
<path d="M24 8.97609H0V10.1857H24V8.97609Z" fill="#FF4B55"/>
<path d="M24 6.55688H0V7.76644H24V6.55688Z" fill="#FF4B55"/>
<path d="M24 12.6048H0.413812C0.185297 12.6048 0 12.4195 0 12.191V11.3952H24V12.6048Z" fill="#FF4B55"/>
<path d="M24 16.2337H0V17.4433H24V16.2337Z" fill="#FF4B55"/>
<path d="M23.5861 19.862H0.413812C0.185297 19.862 0 19.6767 0 19.4482V18.6525H24V19.4483C24 19.6768 23.8147 19.862 23.5861 19.862Z" fill="#FF4B55"/>
<path d="M24 13.8145H0V15.0241H24V13.8145Z" fill="#FF4B55"/>
<path d="M10.7586 4.13799H0.413812C0.185297 4.13799 0 4.32323 0 4.55175V12.191C0 12.4195 0.185297 12.6048 0.413812 12.6048H10.7586C10.9872 12.6048 11.1724 12.4195 11.1724 12.191V4.55175C11.1724 4.32323 10.9871 4.13799 10.7586 4.13799Z" fill="#41479B"/>
<path d="M1.16259 5.08774L1.25419 5.36243L1.54373 5.36463C1.58123 5.36496 1.59675 5.41277 1.56661 5.43504L1.33369 5.60707L1.42106 5.88312C1.4324 5.91884 1.39167 5.94846 1.36115 5.92662L1.12561 5.75829L0.890061 5.92666C0.859546 5.94846 0.818905 5.91888 0.830155 5.88316L0.91753 5.60712L0.684609 5.43509C0.654468 5.41277 0.669984 5.36501 0.707484 5.36468L0.99703 5.36248L1.08862 5.08779C1.10044 5.05217 1.15069 5.05217 1.16259 5.08774Z" fill="#F5F5F5"/>
<path d="M1.1621 6.52461L1.2537 6.7993L1.54324 6.8015C1.58074 6.80183 1.59626 6.84964 1.56612 6.87191L1.3332 7.04394L1.42057 7.31999C1.43192 7.35571 1.39118 7.38533 1.36067 7.36349L1.12512 7.19516L0.889573 7.36353C0.859057 7.38533 0.818417 7.35575 0.829667 7.32003L0.917042 7.04399L0.68412 6.87196C0.65398 6.84964 0.669495 6.80188 0.706995 6.80155L0.996542 6.79935L1.08814 6.52466C1.09995 6.48908 1.1502 6.48908 1.1621 6.52461Z" fill="#F5F5F5"/>
<path d="M1.1621 7.96152L1.2537 8.2362L1.54324 8.23841C1.58074 8.23874 1.59626 8.28655 1.56612 8.30881L1.3332 8.48085L1.42057 8.75689C1.43192 8.79261 1.39118 8.82223 1.36067 8.80039L1.12512 8.63206L0.889573 8.80044C0.859057 8.82223 0.818417 8.79266 0.829667 8.75694L0.917042 8.48089L0.68412 8.30886C0.65398 8.28655 0.669495 8.23878 0.706995 8.23845L0.996542 8.23625L1.08814 7.96157C1.09995 7.92599 1.1502 7.92599 1.1621 7.96152Z" fill="#F5F5F5"/>
<path d="M1.1621 9.39849L1.2537 9.67318L1.54324 9.67538C1.58074 9.67571 1.59626 9.72352 1.56612 9.74578L1.3332 9.91782L1.42057 10.1939C1.43192 10.2296 1.39118 10.2592 1.36067 10.2374L1.12512 10.069L0.889573 10.2374C0.859057 10.2592 0.818417 10.2296 0.829667 10.1939L0.917042 9.91786L0.68412 9.74583C0.65398 9.72352 0.669495 9.67575 0.706995 9.67543L0.996542 9.67322L1.08814 9.39854C1.09995 9.36291 1.1502 9.36291 1.1621 9.39849Z" fill="#F5F5F5"/>
<path d="M1.1621 10.8354L1.2537 11.1101L1.54324 11.1123C1.58074 11.1126 1.59626 11.1604 1.56612 11.1827L1.3332 11.3547L1.42057 11.6307C1.43192 11.6665 1.39118 11.6961 1.36067 11.6742L1.12512 11.5059L0.889573 11.6743C0.859057 11.6961 0.818417 11.6665 0.829667 11.6308L0.917042 11.3547L0.68412 11.1827C0.65398 11.1604 0.669495 11.1126 0.706995 11.1123L0.996542 11.1101L1.08814 10.8354C1.09995 10.7997 1.1502 10.7997 1.1621 10.8354Z" fill="#F5F5F5"/>
<path d="M2.27734 5.7922L2.36893 6.06688L2.65848 6.06909C2.69598 6.06942 2.71149 6.11723 2.68135 6.13949L2.44843 6.31152L2.53581 6.58757C2.54715 6.62329 2.50642 6.65291 2.4759 6.63107L2.24035 6.4627L2.00481 6.63107C1.97429 6.65287 1.93365 6.62329 1.9449 6.58757L2.03228 6.31152L1.79935 6.13949C1.76921 6.11718 1.78473 6.06942 1.82223 6.06909L2.11178 6.06688L2.20337 5.7922C2.21514 5.75667 2.26548 5.75667 2.27734 5.7922Z" fill="#F5F5F5"/>
<path d="M2.27734 7.22914L2.36893 7.50382L2.65848 7.50603C2.69598 7.50635 2.71149 7.55417 2.68135 7.57643L2.44843 7.74846L2.53581 8.02451C2.54715 8.06023 2.50642 8.08985 2.4759 8.06801L2.24035 7.89963L2.00481 8.06801C1.97429 8.08981 1.93365 8.06027 1.9449 8.02451L2.03228 7.74846L1.79935 7.57643C1.76921 7.55412 1.78473 7.50635 1.82223 7.50603L2.11178 7.50382L2.20337 7.22914C2.21514 7.19356 2.26548 7.19356 2.27734 7.22914Z" fill="#F5F5F5"/>
<path d="M2.27734 8.66604L2.36893 8.94073L2.65848 8.94293C2.69598 8.94326 2.71149 8.99107 2.68135 9.01334L2.44843 9.18537L2.53581 9.46142C2.54715 9.49713 2.50642 9.52676 2.4759 9.50492L2.24035 9.33654L2.00481 9.50492C1.97429 9.52671 1.93365 9.49713 1.9449 9.46142L2.03228 9.18537L1.79935 9.01334C1.76921 8.99103 1.78473 8.94326 1.82223 8.94293L2.11178 8.94073L2.20337 8.66604C2.21514 8.63046 2.26548 8.63046 2.27734 8.66604Z" fill="#F5F5F5"/>
<path d="M2.27734 10.1029L2.36893 10.3776L2.65848 10.3798C2.69598 10.3802 2.71149 10.428 2.68135 10.4502L2.44843 10.6223L2.53581 10.8983C2.54715 10.934 2.50642 10.9637 2.4759 10.9418L2.24035 10.7734L2.00481 10.9418C1.97429 10.9636 1.93365 10.934 1.9449 10.8983L2.03228 10.6223L1.79935 10.4502C1.76921 10.4279 1.78473 10.3802 1.82223 10.3798L2.11178 10.3776L2.20337 10.1029C2.21514 10.0674 2.26548 10.0674 2.27734 10.1029Z" fill="#F5F5F5"/>
<path d="M3.39282 5.08772L3.48441 5.36241L3.77396 5.36461C3.81146 5.36494 3.82697 5.41275 3.79683 5.43501L3.56391 5.60704L3.65128 5.88309C3.66263 5.91881 3.62189 5.94843 3.59138 5.92659L3.35583 5.75822L3.12029 5.92659C3.08977 5.94839 3.04913 5.91881 3.06038 5.88309L3.14775 5.60704L2.91483 5.43501C2.88469 5.4127 2.90021 5.36494 2.93771 5.36461L3.22725 5.36241L3.31885 5.08772C3.33066 5.05214 3.38096 5.05214 3.39282 5.08772Z" fill="#F5F5F5"/>
<path d="M3.39282 6.52462L3.48441 6.79931L3.77396 6.80151C3.81146 6.80184 3.82697 6.84965 3.79683 6.87191L3.56391 7.04395L3.65128 7.31999C3.66263 7.35571 3.62189 7.38534 3.59138 7.36349L3.35583 7.19512L3.12029 7.36349C3.08977 7.38529 3.04913 7.35571 3.06038 7.31999L3.14775 7.04395L2.91483 6.87191C2.88469 6.8496 2.90021 6.80184 2.93771 6.80151L3.22725 6.79931L3.31885 6.52462C3.33066 6.48909 3.38096 6.48909 3.39282 6.52462Z" fill="#F5F5F5"/>
<path d="M3.39282 7.96152L3.48441 8.23621L3.77396 8.23842C3.81146 8.23874 3.82697 8.28656 3.79683 8.30882L3.56391 8.48085L3.65128 8.7569C3.66263 8.79262 3.62189 8.82224 3.59138 8.8004L3.35583 8.63202L3.12029 8.8004C3.08977 8.8222 3.04913 8.79262 3.06038 8.7569L3.14775 8.48085L2.91483 8.30882C2.88469 8.28651 2.90021 8.23874 2.93771 8.23842L3.22725 8.23621L3.31885 7.96152C3.33066 7.92599 3.38096 7.92599 3.39282 7.96152Z" fill="#F5F5F5"/>
<path d="M3.39282 9.39846L3.48441 9.67315L3.77396 9.67535C3.81146 9.67568 3.82697 9.72349 3.79683 9.74576L3.56391 9.91779L3.65128 10.1938C3.66263 10.2296 3.62189 10.2592 3.59138 10.2373L3.35583 10.069L3.12029 10.2373C3.08977 10.2591 3.04913 10.2296 3.06038 10.1938L3.14775 9.91779L2.91483 9.74576C2.88469 9.72345 2.90021 9.67568 2.93771 9.67535L3.22725 9.67315L3.31885 9.39846C3.33066 9.36289 3.38096 9.36289 3.39282 9.39846Z" fill="#F5F5F5"/>
<path d="M3.39282 10.8354L3.48441 11.1101L3.77396 11.1123C3.81146 11.1126 3.82697 11.1604 3.79683 11.1827L3.56391 11.3547L3.65128 11.6307C3.66263 11.6665 3.62189 11.6961 3.59138 11.6742L3.35583 11.5059L3.12029 11.6742C3.08977 11.696 3.04913 11.6665 3.06038 11.6307L3.14775 11.3547L2.91483 11.1827C2.88469 11.1604 2.90021 11.1126 2.93771 11.1123L3.22725 11.1101L3.31885 10.8354C3.33066 10.7997 3.38096 10.7997 3.39282 10.8354Z" fill="#F5F5F5"/>
<path d="M4.50805 5.7922L4.59964 6.06688L4.88919 6.06909C4.92669 6.06942 4.94221 6.11723 4.91207 6.13949L4.67914 6.31152L4.76652 6.58757C4.77786 6.62329 4.73713 6.65291 4.70661 6.63107L4.47107 6.4627L4.23552 6.63107C4.205 6.65287 4.16436 6.62329 4.17561 6.58757L4.26299 6.31152L4.03007 6.13949C3.99993 6.11718 4.01544 6.06942 4.05294 6.06909L4.34249 6.06688L4.43408 5.7922C4.44585 5.75667 4.49619 5.75667 4.50805 5.7922Z" fill="#F5F5F5"/>
<path d="M4.50805 7.22914L4.59964 7.50382L4.88919 7.50603C4.92669 7.50635 4.94221 7.55417 4.91207 7.57643L4.67914 7.74846L4.76652 8.02451C4.77786 8.06023 4.73713 8.08985 4.70661 8.06801L4.47107 7.89963L4.23552 8.06801C4.205 8.08981 4.16436 8.06027 4.17561 8.02451L4.26299 7.74846L4.03007 7.57643C3.99993 7.55412 4.01544 7.50635 4.05294 7.50603L4.34249 7.50382L4.43408 7.22914C4.44585 7.19356 4.49619 7.19356 4.50805 7.22914Z" fill="#F5F5F5"/>
<path d="M4.50805 8.66604L4.59964 8.94073L4.88919 8.94293C4.92669 8.94326 4.94221 8.99107 4.91207 9.01334L4.67914 9.18537L4.76652 9.46142C4.77786 9.49713 4.73713 9.52676 4.70661 9.50492L4.47107 9.33654L4.23552 9.50492C4.205 9.52671 4.16436 9.49713 4.17561 9.46142L4.26299 9.18537L4.03007 9.01334C3.99993 8.99103 4.01544 8.94326 4.05294 8.94293L4.34249 8.94073L4.43408 8.66604C4.44585 8.63046 4.49619 8.63046 4.50805 8.66604Z" fill="#F5F5F5"/>
<path d="M4.50805 10.1029L4.59964 10.3776L4.88919 10.3798C4.92669 10.3802 4.94221 10.428 4.91207 10.4502L4.67914 10.6223L4.76652 10.8983C4.77786 10.934 4.73713 10.9637 4.70661 10.9418L4.47107 10.7734L4.23552 10.9418C4.205 10.9636 4.16436 10.934 4.17561 10.8983L4.26299 10.6223L4.03007 10.4502C3.99993 10.4279 4.01544 10.3802 4.05294 10.3798L4.34249 10.3776L4.43408 10.1029C4.44585 10.0674 4.49619 10.0674 4.50805 10.1029Z" fill="#F5F5F5"/>
<path d="M5.62333 5.08772L5.71493 5.36241L6.00447 5.36461C6.04197 5.36494 6.05749 5.41275 6.02735 5.43501L5.79443 5.60704L5.8818 5.88309C5.89314 5.91881 5.85241 5.94843 5.82189 5.92659L5.5863 5.75822L5.35075 5.92659C5.32024 5.94839 5.2796 5.91881 5.29085 5.88309L5.37822 5.60704L5.1453 5.43501C5.11516 5.4127 5.13068 5.36494 5.16818 5.36461L5.45772 5.36241L5.54932 5.08772C5.56118 5.05214 5.61147 5.05214 5.62333 5.08772Z" fill="#F5F5F5"/>
<path d="M5.62333 6.52462L5.71493 6.79931L6.00447 6.80151C6.04197 6.80184 6.05749 6.84965 6.02735 6.87191L5.79443 7.04395L5.8818 7.31999C5.89314 7.35571 5.85241 7.38534 5.82189 7.36349L5.5863 7.19512L5.35075 7.36349C5.32024 7.38529 5.2796 7.35571 5.29085 7.31999L5.37822 7.04395L5.1453 6.87191C5.11516 6.8496 5.13068 6.80184 5.16818 6.80151L5.45772 6.79931L5.54932 6.52462C5.56118 6.48909 5.61147 6.48909 5.62333 6.52462Z" fill="#F5F5F5"/>
<path d="M5.62333 7.96152L5.71493 8.23621L6.00447 8.23842C6.04197 8.23874 6.05749 8.28656 6.02735 8.30882L5.79443 8.48085L5.8818 8.7569C5.89314 8.79262 5.85241 8.82224 5.82189 8.8004L5.5863 8.63202L5.35075 8.8004C5.32024 8.8222 5.2796 8.79262 5.29085 8.7569L5.37822 8.48085L5.1453 8.30882C5.11516 8.28651 5.13068 8.23874 5.16818 8.23842L5.45772 8.23621L5.54932 7.96152C5.56118 7.92599 5.61147 7.92599 5.62333 7.96152Z" fill="#F5F5F5"/>
<path d="M5.62333 9.39846L5.71493 9.67315L6.00447 9.67535C6.04197 9.67568 6.05749 9.72349 6.02735 9.74576L5.79443 9.91779L5.8818 10.1938C5.89314 10.2296 5.85241 10.2592 5.82189 10.2373L5.5863 10.069L5.35075 10.2373C5.32024 10.2591 5.2796 10.2296 5.29085 10.1938L5.37822 9.91779L5.1453 9.74576C5.11516 9.72345 5.13068 9.67568 5.16818 9.67535L5.45772 9.67315L5.54932 9.39846C5.56118 9.36289 5.61147 9.36289 5.62333 9.39846Z" fill="#F5F5F5"/>
<path d="M5.62333 10.8354L5.71493 11.1101L6.00447 11.1123C6.04197 11.1126 6.05749 11.1604 6.02735 11.1827L5.79443 11.3547L5.8818 11.6307C5.89314 11.6665 5.85241 11.6961 5.82189 11.6742L5.5863 11.5059L5.35075 11.6742C5.32024 11.696 5.2796 11.6665 5.29085 11.6307L5.37822 11.3547L5.1453 11.1827C5.11516 11.1604 5.13068 11.1126 5.16818 11.1123L5.45772 11.1101L5.54932 10.8354C5.56118 10.7997 5.61147 10.7997 5.62333 10.8354Z" fill="#F5F5F5"/>
<path d="M6.73876 5.7922L6.83036 6.06688L7.1199 6.06909C7.1574 6.06942 7.17292 6.11723 7.14278 6.13949L6.90986 6.31152L6.99723 6.58757C7.00858 6.62329 6.96784 6.65291 6.93733 6.63107L6.70178 6.4627L6.46623 6.63107C6.43572 6.65287 6.39508 6.62329 6.40633 6.58757L6.4937 6.31152L6.26078 6.13949C6.23064 6.11718 6.24616 6.06942 6.28366 6.06909L6.5732 6.06688L6.6648 5.7922C6.67665 5.75667 6.7269 5.75667 6.73876 5.7922Z" fill="#F5F5F5"/>
<path d="M6.73876 7.22914L6.83036 7.50382L7.1199 7.50603C7.1574 7.50635 7.17292 7.55417 7.14278 7.57643L6.90986 7.74846L6.99723 8.02451C7.00858 8.06023 6.96784 8.08985 6.93733 8.06801L6.70178 7.89963L6.46623 8.06801C6.43572 8.08981 6.39508 8.06027 6.40633 8.02451L6.4937 7.74846L6.26078 7.57643C6.23064 7.55412 6.24616 7.50635 6.28366 7.50603L6.5732 7.50382L6.6648 7.22914C6.67665 7.19356 6.7269 7.19356 6.73876 7.22914Z" fill="#F5F5F5"/>
<path d="M6.73876 8.66604L6.83036 8.94073L7.1199 8.94293C7.1574 8.94326 7.17292 8.99107 7.14278 9.01334L6.90986 9.18537L6.99723 9.46142C7.00858 9.49713 6.96784 9.52676 6.93733 9.50492L6.70178 9.33654L6.46623 9.50492C6.43572 9.52671 6.39508 9.49713 6.40633 9.46142L6.4937 9.18537L6.26078 9.01334C6.23064 8.99103 6.24616 8.94326 6.28366 8.94293L6.5732 8.94073L6.6648 8.66604C6.67665 8.63046 6.7269 8.63046 6.73876 8.66604Z" fill="#F5F5F5"/>
<path d="M6.73876 10.1029L6.83036 10.3776L7.1199 10.3798C7.1574 10.3802 7.17292 10.428 7.14278 10.4502L6.90986 10.6223L6.99723 10.8983C7.00858 10.934 6.96784 10.9637 6.93733 10.9418L6.70178 10.7734L6.46623 10.9418C6.43572 10.9636 6.39508 10.934 6.40633 10.8983L6.4937 10.6223L6.26078 10.4502C6.23064 10.4279 6.24616 10.3802 6.28366 10.3798L6.5732 10.3776L6.6648 10.1029C6.67665 10.0674 6.7269 10.0674 6.73876 10.1029Z" fill="#F5F5F5"/>
<path d="M7.854 5.08772L7.94559 5.36241L8.23514 5.36461C8.27264 5.36494 8.28816 5.41275 8.25801 5.43501L8.02509 5.60704L8.11247 5.88309C8.12381 5.91881 8.08308 5.94843 8.05256 5.92659L7.81701 5.75822L7.58147 5.92659C7.55095 5.94839 7.51031 5.91881 7.52156 5.88309L7.60894 5.60704L7.37601 5.43501C7.34587 5.4127 7.36139 5.36494 7.39889 5.36461L7.68844 5.36241L7.78003 5.08772C7.7918 5.05214 7.84214 5.05214 7.854 5.08772Z" fill="#F5F5F5"/>
<path d="M7.854 6.52462L7.94559 6.79931L8.23514 6.80151C8.27264 6.80184 8.28816 6.84965 8.25801 6.87191L8.02509 7.04395L8.11247 7.31999C8.12381 7.35571 8.08308 7.38534 8.05256 7.36349L7.81701 7.19512L7.58147 7.36349C7.55095 7.38529 7.51031 7.35571 7.52156 7.31999L7.60894 7.04395L7.37601 6.87191C7.34587 6.8496 7.36139 6.80184 7.39889 6.80151L7.68844 6.79931L7.78003 6.52462C7.7918 6.48909 7.84214 6.48909 7.854 6.52462Z" fill="#F5F5F5"/>
<path d="M7.854 7.96152L7.94559 8.23621L8.23514 8.23842C8.27264 8.23874 8.28816 8.28656 8.25801 8.30882L8.02509 8.48085L8.11247 8.7569C8.12381 8.79262 8.08308 8.82224 8.05256 8.8004L7.81701 8.63202L7.58147 8.8004C7.55095 8.8222 7.51031 8.79262 7.52156 8.7569L7.60894 8.48085L7.37601 8.30882C7.34587 8.28651 7.36139 8.23874 7.39889 8.23842L7.68844 8.23621L7.78003 7.96152C7.7918 7.92599 7.84214 7.92599 7.854 7.96152Z" fill="#F5F5F5"/>
<path d="M7.854 9.39846L7.94559 9.67315L8.23514 9.67535C8.27264 9.67568 8.28816 9.72349 8.25801 9.74576L8.02509 9.91779L8.11247 10.1938C8.12381 10.2296 8.08308 10.2592 8.05256 10.2373L7.81701 10.069L7.58147 10.2373C7.55095 10.2591 7.51031 10.2296 7.52156 10.1938L7.60894 9.91779L7.37601 9.74576C7.34587 9.72345 7.36139 9.67568 7.39889 9.67535L7.68844 9.67315L7.78003 9.39846C7.7918 9.36289 7.84214 9.36289 7.854 9.39846Z" fill="#F5F5F5"/>
<path d="M7.854 10.8354L7.94559 11.1101L8.23514 11.1123C8.27264 11.1126 8.28816 11.1604 8.25801 11.1827L8.02509 11.3547L8.11247 11.6307C8.12381 11.6665 8.08308 11.6961 8.05256 11.6742L7.81701 11.5059L7.58147 11.6742C7.55095 11.696 7.51031 11.6665 7.52156 11.6307L7.60894 11.3547L7.37601 11.1827C7.34587 11.1604 7.36139 11.1126 7.39889 11.1123L7.68844 11.1101L7.78003 10.8354C7.7918 10.7997 7.84214 10.7997 7.854 10.8354Z" fill="#F5F5F5"/>
<path d="M8.96923 5.7922L9.06083 6.06688L9.35037 6.06909C9.38787 6.06942 9.40339 6.11723 9.37325 6.13949L9.14033 6.31152L9.2277 6.58757C9.23904 6.62329 9.19831 6.65291 9.16779 6.63107L8.93225 6.4627L8.6967 6.63107C8.66619 6.65287 8.62555 6.62329 8.6368 6.58757L8.72417 6.31152L8.49125 6.13949C8.46111 6.11718 8.47662 6.06942 8.51412 6.06909L8.80367 6.06688L8.89526 5.7922C8.90708 5.75667 8.95742 5.75667 8.96923 5.7922Z" fill="#F5F5F5"/>
<path d="M8.96923 7.22914L9.06083 7.50382L9.35037 7.50603C9.38787 7.50635 9.40339 7.55417 9.37325 7.57643L9.14033 7.74846L9.2277 8.02451C9.23904 8.06023 9.19831 8.08985 9.16779 8.06801L8.93225 7.89963L8.6967 8.06801C8.66619 8.08981 8.62555 8.06027 8.6368 8.02451L8.72417 7.74846L8.49125 7.57643C8.46111 7.55412 8.47662 7.50635 8.51412 7.50603L8.80367 7.50382L8.89526 7.22914C8.90708 7.19356 8.95742 7.19356 8.96923 7.22914Z" fill="#F5F5F5"/>
<path d="M8.96923 8.66604L9.06083 8.94073L9.35037 8.94293C9.38787 8.94326 9.40339 8.99107 9.37325 9.01334L9.14033 9.18537L9.2277 9.46142C9.23904 9.49713 9.19831 9.52676 9.16779 9.50492L8.93225 9.33654L8.6967 9.50492C8.66619 9.52671 8.62555 9.49713 8.6368 9.46142L8.72417 9.18537L8.49125 9.01334C8.46111 8.99103 8.47662 8.94326 8.51412 8.94293L8.80367 8.94073L8.89526 8.66604C8.90708 8.63046 8.95742 8.63046 8.96923 8.66604Z" fill="#F5F5F5"/>
<path d="M8.96923 10.1029L9.06083 10.3776L9.35037 10.3798C9.38787 10.3802 9.40339 10.428 9.37325 10.4502L9.14033 10.6223L9.2277 10.8983C9.23904 10.934 9.19831 10.9637 9.16779 10.9418L8.93225 10.7734L8.6967 10.9418C8.66619 10.9636 8.62555 10.934 8.6368 10.8983L8.72417 10.6223L8.49125 10.4502C8.46111 10.4279 8.47662 10.3802 8.51412 10.3798L8.80367 10.3776L8.89526 10.1029C8.90708 10.0674 8.95742 10.0674 8.96923 10.1029Z" fill="#F5F5F5"/>
<path d="M10.0847 5.08772L10.1763 5.36241L10.4659 5.36461C10.5034 5.36494 10.5189 5.41275 10.4887 5.43501L10.2558 5.60704L10.3432 5.88309C10.3545 5.91881 10.3138 5.94843 10.2833 5.92659L10.0477 5.75822L9.81218 5.92659C9.78167 5.94839 9.74102 5.91881 9.75227 5.88309L9.83965 5.60704L9.60673 5.43501C9.57659 5.4127 9.5921 5.36494 9.6296 5.36461L9.91915 5.36241L10.0107 5.08772C10.0226 5.05214 10.0728 5.05214 10.0847 5.08772Z" fill="#F5F5F5"/>
<path d="M10.0847 6.52462L10.1763 6.79931L10.4659 6.80151C10.5034 6.80184 10.5189 6.84965 10.4887 6.87191L10.2558 7.04395L10.3432 7.31999C10.3545 7.35571 10.3138 7.38534 10.2833 7.36349L10.0477 7.19512L9.81218 7.36349C9.78167 7.38529 9.74102 7.35571 9.75227 7.31999L9.83965 7.04395L9.60673 6.87191C9.57659 6.8496 9.5921 6.80184 9.6296 6.80151L9.91915 6.79931L10.0107 6.52462C10.0226 6.48909 10.0728 6.48909 10.0847 6.52462Z" fill="#F5F5F5"/>
<path d="M10.0847 7.96152L10.1763 8.23621L10.4659 8.23842C10.5034 8.23874 10.5189 8.28656 10.4887 8.30882L10.2558 8.48085L10.3432 8.7569C10.3545 8.79262 10.3138 8.82224 10.2833 8.8004L10.0477 8.63202L9.81218 8.8004C9.78167 8.8222 9.74102 8.79262 9.75227 8.7569L9.83965 8.48085L9.60673 8.30882C9.57659 8.28651 9.5921 8.23874 9.6296 8.23842L9.91915 8.23621L10.0107 7.96152C10.0226 7.92599 10.0728 7.92599 10.0847 7.96152Z" fill="#F5F5F5"/>
<path d="M10.0847 9.39846L10.1763 9.67315L10.4659 9.67535C10.5034 9.67568 10.5189 9.72349 10.4887 9.74576L10.2558 9.91779L10.3432 10.1938C10.3545 10.2296 10.3138 10.2592 10.2833 10.2373L10.0477 10.069L9.81218 10.2373C9.78167 10.2591 9.74102 10.2296 9.75227 10.1938L9.83965 9.91779L9.60673 9.74576C9.57659 9.72345 9.5921 9.67568 9.6296 9.67535L9.91915 9.67315L10.0107 9.39846C10.0226 9.36289 10.0728 9.36289 10.0847 9.39846Z" fill="#F5F5F5"/>
<path d="M10.0847 10.8354L10.1763 11.1101L10.4659 11.1123C10.5034 11.1126 10.5189 11.1604 10.4887 11.1827L10.2558 11.3547L10.3432 11.6307C10.3545 11.6665 10.3138 11.6961 10.2833 11.6742L10.0477 11.5059L9.81218 11.6742C9.78167 11.696 9.74102 11.6665 9.75227 11.6307L9.83965 11.3547L9.60673 11.1827C9.57659 11.1604 9.5921 11.1126 9.6296 11.1123L9.91915 11.1101L10.0107 10.8354C10.0226 10.7997 10.0728 10.7997 10.0847 10.8354Z" fill="#F5F5F5"/>
</g>
<defs>
<clipPath id="clip0_65_1266">
<rect width="24" height="24" fill="white"/>
</clipPath>
</defs>
</svg>
