<?xml version="1.0" encoding="UTF-8"?>
<!DOCTYPE svg PUBLIC "-//W3C//DTD SVG 1.1//EN" "http://www.w3.org/Graphics/SVG/1.1/DTD/svg11.dtd">
<!-- Creator: CorelDRAW 2020 (64-Bit) -->
<svg xmlns="http://www.w3.org/2000/svg" xml:space="preserve" width="204.688mm" height="53.4579mm" version="1.1" style="shape-rendering:geometricPrecision; text-rendering:geometricPrecision; image-rendering:optimizeQuality; fill-rule:evenodd; clip-rule:evenodd"
viewBox="0 0 749.25 195.68"
 xmlns:xlink="http://www.w3.org/1999/xlink"
 xmlns:xodm="http://www.corel.com/coreldraw/odm/2003">
 <defs>
  <style type="text/css">
   <![CDATA[
    .fil0 {fill:#D7B56D}
   ]]>
  </style>
 </defs>
 <g id="Слой_x0020_1">
  <metadata id="CorelCorpID_0Corel-Layer"/>
  <g id="_4440334592">
   <path class="fil0" d="M749.24 195.68l-44.5 0 0 -135.88 44.5 -0.12 0 136zm-45.21 -162.77l0 -32.91 45.22 0 -0.01 32.91 -45.22 0zm-280.75 89.64l43.94 0 0 33.18c0,5.12 2.77,7.68 8.3,7.68l5.22 0c5.53,0 8.3,-2.56 8.3,-7.68l0 -155.48 43.94 0 0 161.31c0,22.74 -12.91,34.11 -38.72,34.11l-32.26 0c-25.81,0 -38.72,-11.37 -38.72,-34.11l0 -39.02zm212.94 -49.4l0 -32.84c0,-5.12 -2.82,-7.4 -8.35,-7.39l-25.15 0.05 0 47.92 25.15 -0.05c5.53,-0.01 8.35,-2.56 8.35,-7.68zm0 82.78l0 -36.14c0,-2.66 -0.49,-3.58 -1.72,-4.7 -1.23,-1.13 -3.5,-1.2 -6.57,-1.2l-25.2 0 0 49.54 25.1 0c5.53,0 8.39,-2.36 8.39,-7.49zm-76.82 -155.67l81.12 0c26.02,0 39.02,11.26 39.02,33.8l0 34.41c0,15.16 -4.61,24.68 -13.83,28.58 9.22,3.48 13.83,12.29 13.83,26.43l0 38.1c0,22.74 -13.01,34.11 -39.02,34.11l-81.12 0 0 -195.42z"/>
   <path class="fil0" d="M-0 0.25l97.76 0 -0.08 97.63 -97.68 0 0 -97.63zm71.12 195.32l-17.51 0 -0.14 -53.28 -53.47 -0.04 0 -17.67 71.12 -0 -0 71zm53.7 -195.32l17.75 0 -0 52.97 52.83 -0.01 -0.01 17.83 -70.56 0 -0 -70.8zm70.58 97.84l0 97.47 -97.67 0 0 -97.56 97.67 0.08z"/>
   <path class="fil0" d="M353.62 72.95l0 -32.21c0,-5.12 -2.57,-7.83 -8.1,-7.83l-25.39 -0.01 0 47.92 26.27 -0.02c5.04,-0 7.22,-2.64 7.22,-7.86zm0 83.17l0 -36.34c0,-2.66 -0.32,-3.82 -1.55,-4.95 -1.23,-1.13 -3.63,-0.91 -6.7,-0.91l-25.25 0 0 49.49 26.64 -0.05c5.53,-0.01 6.85,-3.29 6.85,-7.24zm-76.82 -155.87l81.12 0c26.02,0 39.02,11.26 39.02,33.8l0 34.41c0,15.16 -4.61,24.68 -13.83,28.58 9.22,3.48 13.83,12.29 13.83,26.43l0 38.1c0,22.74 -13.01,34.11 -39.02,34.11l-81.12 0 0 -195.42z"/>
  </g>
 </g>
</svg>
