<svg width="24" height="24" viewBox="0 0 24 24" fill="none" xmlns="http://www.w3.org/2000/svg">
<path d="M23.5861 19.8462H0.413812C0.185297 19.8462 0 19.6613 0 19.4332V4.56684C0 4.33879 0.185297 4.15387 0.413812 4.15387H23.5862C23.8147 4.15387 24 4.33879 24 4.56684V19.4332C24 19.6613 23.8147 19.8462 23.5861 19.8462Z" fill="#41479B"/>
<path d="M11.5861 4.15387H10.8674L7.03441 6.66007V4.15387H4.96545V6.66007L1.1325 4.15387H0.413811C0.185296 4.15387 0 4.33874 0 4.5668V4.89435L3.2885 7.04451H0V9.10929H3.2885L0 11.2595V11.587C0 11.8151 0.185296 12 0.413811 12H1.13259L4.96554 9.49382V12H7.0345V9.49382L10.8674 12H11.5862C11.8147 12 12 11.8151 12 11.587V11.2595L8.7115 9.10934H12V7.04456H8.71145L12 4.8944V4.56684C12 4.33874 11.8147 4.15387 11.5861 4.15387Z" fill="#F5F5F5"/>
<path d="M12 7.45753H6.62067V4.15387H5.37933V7.45753H0V8.69636H5.37933V12H6.62067V8.69636H12V7.45753Z" fill="#FF4B55"/>
<path d="M4.61539 6.9231L0.199962 4.15387C0.082466 4.22569 0 4.34643 0 4.49072V4.51175L3.84472 6.9231H4.61539Z" fill="#FF4B55"/>
<path d="M7.71016 6.9231L12 4.35226C11.9255 4.23579 11.7939 4.15387 11.6367 4.15387H11.544L6.9231 6.9231H7.71016Z" fill="#FF4B55"/>
<path d="M4.28855 9.23077L0 11.7967C0.0739513 11.916 0.207754 12 0.36752 12H0.448473L5.07692 9.23077H4.28855Z" fill="#FF4B55"/>
<path d="M11.9999 11.6693L8.14134 9.23077H7.38452L11.7662 12C11.8975 11.9407 11.9875 11.8164 11.9999 11.6693Z" fill="#FF4B55"/>
<path d="M6.08713 14.374L6.39312 15.4088L7.37374 15.0087C7.45741 14.9745 7.53346 15.0723 7.48239 15.1482L6.88336 16.0385L7.8001 16.5744C7.87831 16.6201 7.85117 16.7419 7.76134 16.7484L6.70834 16.8237L6.87096 17.8921C6.88483 17.9833 6.77489 18.0375 6.71399 17.9695L5.99996 17.1732L5.28593 17.9695C5.22504 18.0375 5.1151 17.9832 5.12896 17.8921L5.29158 16.8237L4.23859 16.7484C4.14876 16.7419 4.12162 16.6201 4.19983 16.5744L5.11657 16.0385L4.51753 15.1482C4.46646 15.0723 4.54251 14.9745 4.62619 15.0087L5.60681 15.4088L5.9128 14.374C5.93902 14.2857 6.06104 14.2857 6.08713 14.374Z" fill="#F5F5F5"/>
<path d="M18.5051 6.95621L18.6581 7.47361L19.1483 7.27358C19.1901 7.25654 19.2282 7.30537 19.2026 7.34336L18.9031 7.78853L19.3615 8.05649C19.4006 8.07932 19.387 8.14028 19.3421 8.14346L18.8156 8.18111L18.8969 8.71527C18.9039 8.76087 18.8489 8.78798 18.8184 8.75398L18.4614 8.35581L18.1044 8.75398C18.074 8.78793 18.019 8.76082 18.0259 8.71527L18.1072 8.18111L17.5807 8.14346C17.5358 8.14028 17.5222 8.07932 17.5613 8.05649L18.0197 7.78853L17.7202 7.34336C17.6946 7.30537 17.7327 7.25654 17.7745 7.27358L18.2647 7.47361L18.4177 6.95621C18.431 6.91206 18.4921 6.91206 18.5051 6.95621Z" fill="#F5F5F5"/>
<path d="M14.8129 10.6485L14.9659 11.1659L15.4562 10.9659C15.498 10.9489 15.536 10.9977 15.5105 11.0357L15.211 11.4808L15.6693 11.7488C15.7084 11.7716 15.6949 11.8326 15.6499 11.8358L15.1235 11.8734L15.2048 12.4076C15.2117 12.4532 15.1567 12.4803 15.1263 12.4463L14.7693 12.0481L14.4123 12.4463C14.3818 12.4802 14.3269 12.4531 14.3338 12.4076L14.415 11.8734L13.8886 11.8358C13.8437 11.8326 13.8301 11.7716 13.8692 11.7488L14.3275 11.4808L14.0281 11.0357C14.0025 10.9977 14.0406 10.9489 14.0824 10.9659L14.5726 11.1659L14.7256 10.6485C14.7389 10.6044 14.7999 10.6044 14.8129 10.6485Z" fill="#F5F5F5"/>
<path d="M21.736 9.26389L21.889 9.78129L22.3793 9.58126C22.4211 9.56422 22.4591 9.61304 22.4336 9.65104L22.1341 10.0962L22.5924 10.3642C22.6315 10.387 22.618 10.448 22.573 10.4511L22.0466 10.4888L22.1278 11.0229C22.1348 11.0685 22.0798 11.0957 22.0494 11.0617L21.6924 10.6635L21.3354 11.0617C21.3049 11.0956 21.25 11.0685 21.2569 11.0229L21.3382 10.4888L20.8117 10.4511C20.7668 10.448 20.7532 10.387 20.7923 10.3642L21.2506 10.0962L20.9512 9.65104C20.9256 9.61304 20.9637 9.56422 21.0055 9.58126L21.4957 9.78129L21.6487 9.26389C21.6619 9.21974 21.7229 9.21974 21.736 9.26389Z" fill="#F5F5F5"/>
<path d="M18.5051 15.7254L18.6581 16.2428L19.1483 16.0428C19.1901 16.0257 19.2282 16.0746 19.2026 16.1125L18.9031 16.5577L19.3615 16.8257C19.4006 16.8485 19.387 16.9095 19.3421 16.9127L18.8156 16.9503L18.8969 17.4845C18.9039 17.5301 18.8489 17.5572 18.8184 17.5232L18.4614 17.125L18.1044 17.5232C18.074 17.5572 18.019 17.53 18.0259 17.4845L18.1072 16.9503L17.5807 16.9127C17.5358 16.9095 17.5222 16.8485 17.5613 16.8257L18.0197 16.5577L17.7202 16.1125C17.6946 16.0746 17.7327 16.0257 17.7745 16.0428L18.2647 16.2428L18.4177 15.7254C18.431 15.6813 18.4921 15.6813 18.5051 15.7254Z" fill="#F5F5F5"/>
<path d="M19.5593 11.5808L19.4205 12.0164L18.9819 12.02C18.9251 12.0205 18.9015 12.0963 18.9472 12.1316L19.3001 12.4044L19.1678 12.8423C19.1507 12.899 19.2123 12.9458 19.2585 12.9113L19.6154 12.6442L19.9723 12.9113C20.0185 12.9458 20.0802 12.8989 20.0631 12.8423L19.9307 12.4044L20.2836 12.1316C20.3293 12.0963 20.3057 12.0205 20.249 12.02L19.8103 12.0164L19.6715 11.5808C19.6535 11.5243 19.5773 11.5243 19.5593 11.5808Z" fill="#F5F5F5"/>
</svg>
