<svg width="24" height="24" viewBox="0 0 24 24" fill="none" xmlns="http://www.w3.org/2000/svg">
<g clip-path="url(#clip0_65_1433)">
<path d="M23.5864 19.862H0.414056C0.185541 19.862 0.000244141 19.6767 0.000244141 19.4482V4.55169C0.000244141 4.32317 0.185541 4.13788 0.414056 4.13788H23.5864C23.8149 4.13788 24.0002 4.32317 24.0002 4.55169V19.4482C24.0002 19.6768 23.8149 19.862 23.5864 19.862Z" fill="#F5F5F5"/>
<path d="M12.0003 16.5515C14.514 16.5515 16.5518 14.5137 16.5518 12C16.5518 9.48623 14.514 7.44843 12.0003 7.44843C9.48653 7.44843 7.44873 9.48623 7.44873 12C7.44873 14.5137 9.48653 16.5515 12.0003 16.5515Z" fill="#FF4B55"/>
</g>
<defs>
<clipPath id="clip0_65_1433">
<rect width="24" height="24" fill="white"/>
</clipPath>
</defs>
</svg>
